<svg xmlns="http://www.w3.org/2000/svg" width="18" height="22" viewBox="0 0 18 22">
  <path fill="#000000" d="M13.9999995,1.99999976 L14.9999998,1.99999976 C16.8856183,1.99999976 17.9999998,3.11438139 17.9999998,4.99999976 L17.9999998,18.9999998 C17.9999998,20.8856184 16.8856184,21.9999998 14.9999998,21.9999998 L2.99999976,21.9999998 C1.11438139,21.9999998 -2.400011e-07,20.8856183 -2.400011e-07,18.9999998 L-2.400011e-07,4.99999976 C-2.400011e-07,4.18249851 0.300618576,3.45674053 0.878679319,2.87867979 C1.45674011,2.300619 2.18249859,1.99999976 2.99999976,1.99999976 L3.99999952,1.99999976 C3.99999959,0.781048258 4.78104789,-1.2000055e-07 5.99999952,-1.2000055e-07 L11.9999995,-1.2000055e-07 C13.2189511,-1.2000055e-07 13.9999994,0.781048277 13.9999995,1.99999971 Z M3.99999952,3.99999976 L2.99999976,3.99999976 C2.71293177,3.99999976 2.49588105,4.08990518 2.29289288,4.29289335 C2.08990489,4.49588135 1.99999976,4.71293151 1.99999976,4.99999976 L1.99999976,18.9999998 C1.99999976,19.7810487 2.21895083,19.9999998 2.99999976,19.9999998 L14.9999998,19.9999998 C15.7810489,19.9999998 15.9999998,19.7810489 15.9999998,18.9999998 L15.9999998,4.99999976 C15.9999998,4.21895083 15.7810487,3.99999976 14.9999998,3.99999976 L13.9999995,3.99999976 C13.9999995,5.21895121 13.2189511,5.99999988 11.9999995,5.99999988 L5.99999952,5.99999988 C4.78104788,5.99999988 3.99999952,5.21895123 3.99999952,3.99999988 Z M5.99999952,1.99999988 L5.99999952,3.99999988 L11.9999995,3.99999988 L11.9999995,1.99999988 L5.99999952,1.99999988 Z"/>
</svg>
