<?xml version="1.0" standalone="no"?>
<!DOCTYPE svg PUBLIC "-//W3C//DTD SVG 20010904//EN"
 "http://www.w3.org/TR/2001/REC-SVG-20010904/DTD/svg10.dtd">
<svg version="1.0" xmlns="http://www.w3.org/2000/svg"
 width="700.000000pt" height="700.000000pt" viewBox="0 0 700.000000 700.000000"
 preserveAspectRatio="xMidYMid meet">
<metadata>
Created by potrace 1.11, written by Peter Selinger 2001-2013
</metadata>
<g transform="translate(0.000000,700.000000) scale(0.100000,-0.100000)"
fill="#000000" stroke="none">
<path d="M1435 6539 c-47 -25 -62 -40 -95 -94 l-25 -40 -1 -1149 c-1 -1012 0
-1155 14 -1195 35 -105 86 -157 262 -267 197 -123 302 -246 327 -379 4 -22 6
-346 5 -720 -2 -374 -4 -970 -5 -1325 l-2 -646 37 -74 c48 -97 126 -176 221
-224 82 -42 97 -46 187 -51 123 -6 262 49 354 141 60 60 111 153 121 219 3 22
8 371 11 775 11 1795 12 1882 28 1931 41 132 124 231 271 324 160 102 202 131
238 169 38 39 82 119 93 168 3 13 5 532 6 1154 0 1106 0 1132 -20 1175 -36 80
-86 118 -168 126 -67 7 -128 -14 -171 -60 -65 -67 -62 -16 -62 -1009 l-1 -903
-25 -51 c-80 -163 -305 -160 -391 6 -17 33 -18 86 -19 945 -1 907 -1 910 -23
951 -62 120 -203 159 -316 88 -34 -21 -54 -43 -73 -83 l-26 -53 -1 -907 c-1
-860 -2 -908 -20 -941 -37 -70 -101 -117 -174 -126 -52 -7 -133 20 -170 58
-72 69 -66 -7 -72 1013 -5 851 -6 922 -22 952 -43 78 -100 115 -187 120 -53 3
-74 -1 -106 -18z"/>
<path d="M5277 6543 c-117 -34 -275 -144 -420 -288 -234 -234 -391 -455 -548
-775 -44 -91 -85 -173 -90 -182 -5 -10 -9 -23 -9 -29 0 -6 -7 -25 -15 -42 -44
-95 -145 -437 -161 -546 -8 -52 -13 -82 -19 -111 -5 -24 -7 -46 -22 -200 -10
-92 -10 -387 -1 -455 21 -166 79 -316 164 -426 60 -78 123 -132 229 -195 142
-84 208 -158 241 -270 16 -55 18 -142 18 -1209 1 -1254 -2 -1184 59 -1275 145
-216 448 -269 672 -119 70 47 118 106 147 181 20 51 21 74 24 548 8 1479 3
4007 -10 5061 -3 207 -4 218 -27 259 -13 24 -36 52 -51 63 -33 25 -117 30
-181 10z"/>
</g>
</svg>
