<svg xmlns="http://www.w3.org/2000/svg" width="22" height="22" viewBox="0 0 22 22">
  <path fill="#000000" d="M1255,134 C1256.64593,134 1258.07879,134.593512 1259.24264,135.757359 C1260.40649,136.921206 1261,138.354071 1261,140 L1261,150 C1261,151.645929 1260.40649,153.078793 1259.24264,154.242641 C1258.07879,155.406488 1256.64593,156 1255,156 L1245,156 C1243.35407,156 1241.92121,155.406488 1240.75736,154.242641 C1239.59351,153.078793 1239,151.645929 1239,150 L1239,140 C1239,138.354071 1239.59351,136.921206 1240.75736,135.757359 C1241.92121,134.593512 1243.35407,134 1245,134 L1255,134 Z M1242.17157,137.171573 C1241.3828,137.960347 1241,138.884504 1241,140 L1241,150 C1241,151.115496 1241.3828,152.039652 1242.17157,152.828427 C1242.96035,153.617201 1243.8845,154 1245,154 L1255,154 C1256.1155,154 1257.03965,153.617202 1257.82843,152.828427 C1258.6172,152.039652 1259,151.115496 1259,150 L1259,140 C1259,138.884504 1258.6172,137.960347 1257.82843,137.171573 C1257.03965,136.382798 1256.1155,136 1255,136 L1245,136 C1243.8845,136 1242.96035,136.382798 1242.17157,137.171573 Z M1252.29122,149.422908 C1250.18423,150.483412 1248.17567,150.160209 1246.50773,148.492267 C1244.83979,146.824325 1244.51659,144.815768 1245.57709,142.708782 C1246.6376,140.601797 1248.44337,139.664815 1250.77668,140.010816 C1253.16896,140.365561 1254.63444,141.831035 1254.98918,144.223316 C1255.33518,146.556626 1254.3982,148.362402 1252.29122,149.422908 Z M1250.48332,141.989183 C1249.00349,141.769743 1248.03615,142.271677 1247.36356,143.607962 C1246.69097,144.944248 1246.86411,146.020217 1247.92195,147.078053 C1248.97978,148.13589 1250.05575,148.309028 1251.39204,147.636438 C1252.72832,146.963847 1253.23026,145.996508 1253.01082,144.516683 C1252.7853,142.99589 1252.00411,142.214697 1250.48332,141.989183 Z M1256.94294,139.211314 C1257.04772,139.917912 1256.78108,140.431787 1256.14302,140.752941 C1255.50496,141.074094 1254.93338,140.982119 1254.42827,140.477015 C1253.92317,139.971912 1253.83119,139.40033 1254.15235,138.76227 C1254.4735,138.124211 1254.98738,137.857571 1255.69397,137.962351 C1256.41909,138.069877 1256.83541,138.486198 1256.94294,139.211314 Z" transform="translate(-1239 -134)"/>
</svg>
