<svg xmlns="http://www.w3.org/2000/svg" width="22" height="22" viewBox="0 0 22 22">
  <path fill="#FFFFFF" d="M1388,28 C1389.64593,27.9999999 1391.07879,28.5935118 1392.24264,29.757359 C1393.40649,30.921206 1394,32.3540711 1394,34 L1394,44 C1394,45.6459287 1393.40649,47.0787933 1392.24264,48.2426407 C1391.07879,49.406488 1389.64593,50 1388,50 L1378,50 C1376.35407,50 1374.92121,49.4064878 1373.75736,48.2426407 C1372.59351,47.0787933 1372,45.6459287 1372,44 L1372,34.0000001 C1372,32.3540711 1372.59351,30.9212059 1373.75736,29.7573592 C1374.92121,28.5935119 1376.35407,27.9999999 1378,28 L1388,28 Z M1375.17157,31.1715727 C1374.3828,31.9603468 1374,32.884504 1374,34 L1374,44.0000001 C1374,45.1154958 1374.3828,46.0396526 1375.17157,46.8284272 C1375.96035,47.6172015 1376.8845,48 1378,48 L1388,48 C1389.1155,48 1390.03965,47.6172017 1390.82843,46.8284272 C1391.6172,46.0396525 1392,45.1154957 1392,44 L1392,34 C1392,32.8845041 1391.6172,31.9603469 1390.82843,31.1715727 C1390.03965,30.3827981 1389.1155,29.9999999 1388,30 L1378,30 C1376.8845,29.9999999 1375.96035,30.3827983 1375.17157,31.1715727 Z M1385.29122,43.4229077 C1383.18423,44.4834125 1381.17567,44.1602087 1379.50773,42.492267 C1377.83979,40.8243254 1377.51659,38.8157677 1378.57709,36.7087821 C1379.6376,34.6017967 1381.44337,33.6648149 1383.77668,34.0108162 C1386.16896,34.3655611 1387.63444,35.8310353 1387.98918,38.2233158 C1388.33518,40.5566264 1387.3982,42.3624023 1385.29122,43.4229077 Z M1383.48332,35.9891831 C1382.00349,35.7697432 1381.03615,36.2716768 1380.36356,37.6079625 C1379.69097,38.9442484 1379.86411,40.0202167 1380.92195,41.0780535 C1381.97978,42.1358903 1383.05575,42.3090279 1384.39204,41.6364379 C1385.72832,40.9638474 1386.23026,39.9965078 1386.01082,38.5166829 C1385.7853,36.9958904 1385.00411,36.2146973 1383.48332,35.9891831 Z M1389.94294,33.2113145 C1390.04772,33.9179123 1389.78108,34.4317876 1389.14302,34.7529408 C1388.50496,35.074094 1387.93338,34.9821189 1387.42827,34.4770153 C1386.92317,33.9719117 1386.83119,33.40033 1387.15235,32.7622706 C1387.4735,32.1242111 1387.98738,31.8575713 1388.69397,31.962351 C1389.41909,32.0698766 1389.83541,32.486198 1389.94294,33.2113145 Z" transform="translate(-1372 -28)"/>
</svg>
