<svg xmlns="http://www.w3.org/2000/svg" width="558" height="317" viewBox="0 0 558 317">
  <path fill="#000000" d="M201.69777,139.286556 C210.33332,108.008058 239.008294,85.0385 273.052101,85.0385 C292.946902,85.0385 311.597648,92.9218412 325.386552,106.702043 C326.152807,107.467815 326.153199,108.709768 325.387428,109.476023 C324.621656,110.242278 323.379703,110.24267 322.613448,109.476899 C309.552961,96.424654 291.896312,88.9615 273.052101,88.9615 C238.26762,88.9615 209.402593,114.282354 203.904908,147.486288 L208.474021,164.460981 L220.040236,161.327221 L225,179.752884 L213.435192,182.885232 L217.49139,197.959748 L215.207651,198.578467 C222.505038,209.229562 232.73064,217.848721 244.969403,223.202945 C245.961889,223.637138 246.414475,224.793691 245.980281,225.786177 C245.546087,226.778663 244.389535,227.231249 243.397049,226.797055 C230.042809,220.954832 218.95812,211.43072 211.209519,199.661657 L195.196377,204 L191.137365,188.924073 L145.324287,201.333481 L140,181.555502 C143.894344,163.498268 149.231298,144.91027 159.698314,113.876164 L192.468788,105 L201.69777,139.286556 Z M536.808778,115.170742 L552.911929,107.346025 C554.488131,104.335692 554.2977,102.410377 552.796718,101.133058 C551.073825,99.6668953 547.575863,98.8819057 543.03754,99.0145028 C533.225537,99.301182 521.578661,103.57002 515.693416,109.430273 C509.077777,116.020736 503.28198,124.672276 494.461255,140.202417 C490.264311,147.591794 489.902552,153.109822 491.915569,157.132389 C493.656408,160.617704 493.437605,164.828714 491.455529,168.322855 L451.837543,238.07427 C450.293135,240.79304 450.933949,244.23961 453.309201,245.931479 C456.088389,247.913624 459.971726,247.03827 461.642921,244.095157 L515.844321,148.667838 L533.200098,118.109981 L524.316514,114.879587 C523.278447,114.502108 522.742934,113.354581 523.120413,112.316514 C523.497892,111.278447 524.645419,110.742934 525.683486,111.120413 L536.683486,115.120413 C536.726107,115.135912 536.76788,115.152708 536.808778,115.170742 Z M433,158.5 C433,246.037687 362.037687,317 274.5,317 C186.962313,317 116,246.037687 116,158.5 C116,70.9623134 186.962313,0 274.5,0 C362.037687,0 433,70.9623134 433,158.5 Z M429,158.5 C429,73.1714524 359.828548,4 274.5,4 C189.171452,4 120,73.1714524 120,158.5 C120,243.828548 189.171452,313 274.5,313 C359.828548,313 429,243.828548 429,158.5 Z M14.1684583,98.7683791 L0.412071392,80.8033789 C-0.259467516,79.9263901 -0.0929175082,78.6710604 0.784071246,77.9995215 C1.66106,77.3279826 2.9163897,77.4945326 3.58792861,78.3715214 L17.9765506,97.162182 L21.6226436,122.167037 C21.9373026,124.32667 23.1993011,126.234258 25.061673,127.367284 L28.5198568,129.468792 C32.3946278,131.823523 35.0179611,135.788587 35.6725328,140.278899 L51.4847585,248.697758 C51.9360903,251.79677 54.5623929,254.123197 57.4779844,253.994805 C60.8957402,253.84388 63.4290659,250.752919 62.93945,247.395001 L47.0751628,138.615328 C46.4190505,134.125589 47.8006043,129.576408 50.8423396,126.209034 L53.5550182,123.207877 C55.0170048,121.589158 55.6817406,119.400703 55.3670506,117.240857 L53.3424483,103.359027 L52.7306066,70.0367165 C52.7103287,68.9323331 53.5891698,68.020615 54.6935531,68.0003371 C55.7979365,67.9800591 56.7096546,68.8589002 56.7299325,69.9632835 L57.3371247,103.032369 L59.3252167,116.663863 C59.8117371,120.003051 58.7842196,123.385863 56.5229851,125.889513 L53.8102173,128.890769 C51.5680335,131.372994 50.5494311,134.727048 51.0332076,138.037504 L66.8975872,246.81781 C67.7277194,252.511079 63.4461102,257.735157 57.6542035,257.990922 C52.6260533,258.212342 48.2657206,254.34988 47.5265742,249.274626 L31.7143871,140.856033 C31.2317757,137.545355 29.29783,134.622273 26.4425533,132.887097 L22.9835346,130.785081 C20.1019473,129.031988 18.1509588,126.08295 17.664469,122.743972 L14.1684583,98.7683791 Z M33.0388386,72.3922323 C32.8222147,71.3091128 33.5246482,70.2554625 34.6077677,70.0388386 C35.6908872,69.8222147 36.7445375,70.5246482 36.9611614,71.6077677 L45.9611614,116.607768 C46.1777853,117.690887 45.4753518,118.744537 44.3922323,118.961161 C43.3091128,119.177785 42.2554625,118.475352 42.0388386,117.392232 L33.0388386,72.3922323 Z M33.9311212,118.479643 C34.2185062,119.546172 33.5868854,120.643736 32.5203566,120.931121 C31.4538278,121.218506 30.3562638,120.586885 30.0688788,119.520357 L22.9930626,93.2609432 L23.4983745,73.9476899 C23.5272646,72.8434983 24.4458088,71.9717941 25.5500004,72.0006842 C26.654192,72.0295743 27.5258962,72.9481185 27.4970061,74.0523101 L27.0069374,92.7829608 L33.9311212,118.479643 Z M519.322456,150.643333 L465.121154,246.070479 C462.282768,251.069112 455.703426,252.55218 450.987561,249.188777 C446.89337,246.272524 445.829757,240.551964 448.359477,236.098654 L487.976868,166.348288 C489.318942,163.982386 489.464695,161.177268 488.337795,158.921113 C485.700221,153.650508 486.153964,146.729407 490.983116,138.22693 C499.975348,122.394827 505.921392,113.519007 512.8707,106.596147 C519.53981,99.955357 532.157541,95.3306789 542.920721,95.0162089 C548.354909,94.8574372 552.754433,95.8447497 555.38906,98.0867874 C558.60757,100.825703 558.852127,105.006772 556.099512,109.853492 L555.792914,110.39334 L536.995217,119.52737 L519.322456,150.643333 Z M368.754294,196.285857 L322,189.543635 L324.885635,169.294414 C335.524664,154.269252 347.690558,139.328667 369.426675,115 L402.869226,119.820908 L394.195511,180.701076 L406,182.403899 L403.311877,201.267462 L391.508788,199.566048 L389.310943,215 L366.556449,211.719809 L368.754294,196.285857 Z M344.95901,174.477594 L371.97612,178.373789 L378.439382,132.992416 L377.981323,132.926164 C363.89494,148.666004 355.046126,159.102846 345.052863,173.817891 L344.95901,174.477594 Z M160.572325,178.334222 L187.045981,171.163275 L175.115243,126.840332 L174.666275,126.963141 C167.871229,147.051673 163.820661,160.175353 160.399212,177.689119 L160.572325,178.334222 Z M282.361291,104.669398 C308.847039,109.032188 322.29302,131.745857 316.778094,165.413185 C314.607385,178.668484 310.170057,189.467945 303.949898,197.415466 C301.906131,194.514012 298.543578,192.612719 294.731086,192.612719 C289.470044,192.612719 285.062335,196.231401 283.812662,201.117613 C279.687046,201.297274 276.395016,204.699514 276.395016,208.881229 C276.395016,210.277491 276.76738,211.584631 277.409142,212.717768 C273.390722,213.183188 269.15509,213.081333 264.726224,212.349958 C237.955562,207.93907 224.735256,184.752906 230.224793,151.227044 C235.739718,117.558302 255.80361,100.292462 282.361291,104.669398 Z M290.351586,161.132445 C293.980718,138.971905 289.161152,126.651692 279.03541,124.982401 C268.908258,123.31594 260.259275,133.48871 256.651301,155.507784 C253.02358,177.668324 257.854429,190.354933 268.052105,192.03554 C278.180667,193.703416 286.721044,183.294399 290.351586,161.132445 Z M315,208.5 C315,210.4334 313.4334,212 311.5,212 C309.5666,212 308,210.4334 308,208.5 C308,206.5666 309.5666,205 311.5,205 C313.4334,205 315,206.5666 315,208.5 Z M281,220.5 C281,221.3295 280.3295,222 279.5,222 C278.6705,222 278,221.3295 278,220.5 C278,219.6705 278.6705,219 279.5,219 C280.3295,219 281,219.6705 281,220.5 Z M294,202.5 C294,203.3295 293.3295,204 292.5,204 C291.6705,204 291,203.3295 291,202.5 C291,201.6705 291.6705,201 292.5,201 C293.3295,201 294,201.6705 294,202.5 Z"/>
</svg>
