<svg xmlns="http://www.w3.org/2000/svg" width="165" height="133" viewBox="0 0 165 133">
  <path fill="#000000" fill-rule="evenodd" d="M210.51968,226.859445 C210.873754,228.054091 210.705819,229.349369 210.058737,230.413958 C209.254875,231.735131 207.78573,232.481343 206.263737,232.481343 C205.589057,232.481343 204.904395,232.334808 204.262011,232.026436 L193.36379,226.796476 C184.946441,254.656445 159.04379,274.000294 129.866388,274.000294 C114.684626,274.000294 100.398327,268.99867 88.5500356,259.536838 C77.3887544,250.623485 69.3231317,238.204462 65.7136833,224.462502 L51.8102313,229.17694 C51.3551601,229.331715 50.8812989,229.407631 50.4080249,229.407631 C49.6617082,229.407631 48.9165658,229.218135 48.2512811,228.845029 C47.1649822,228.237113 46.382847,227.191356 46.1045196,225.976701 C45.6059964,223.799856 46.9353915,221.510608 49.1320641,220.766162 L64.0290391,215.714515 C63.6931673,213.00979 63.5140747,210.253277 63.5140747,207.500294 C63.5140747,170.831723 93.2792527,141.000294 129.866388,141.000294 C166.452936,141.000294 196.218701,170.831723 196.218701,207.500294 C196.218701,211.028325 195.929804,214.545175 195.383719,217.978458 L208.203221,224.130591 C209.320641,224.66671 210.165605,225.661856 210.51968,226.859445 Z M129.866388,271.646312 C158.132473,271.646312 183.212473,252.8274 191.221139,225.768374 L174.14452,217.572985 C173.216762,217.126905 172.182135,217.147502 171.375338,217.627126 C169.746477,218.596378 166.864555,219.299042 162.38548,217.149268 C143.833256,208.246507 134.321388,196.4866 136.171032,192.614887 C136.614947,191.687418 137.926139,190.403321 141.736993,192.233542 L193.168843,216.916223 C193.625089,213.824268 193.869947,210.666989 193.869947,207.500294 C193.869947,172.129945 165.157598,143.354277 129.866388,143.354277 C94.5745907,143.354277 65.8628292,172.129945 65.8628292,207.500294 C65.8628292,209.99375 66.014911,212.48956 66.3008719,214.944175 L92.2610676,206.141458 C93.4847687,205.72598 94.450694,204.793803 94.9110498,203.583268 L95.5105694,202.007277 C96.0484342,200.592533 97.1781851,199.503816 98.6085765,199.018308 L100.065979,198.52456 C104.003665,185.251631 116.288826,176.033436 130.171139,176.033436 C138.405285,176.033436 146.184947,179.201308 152.076797,184.953263 C152.541263,185.406993 152.551246,186.152029 152.098523,186.617529 C151.646388,187.083029 150.90242,187.093033 150.437954,186.639303 C144.987082,181.317538 137.789324,178.387418 130.171139,178.387418 C117.895374,178.387418 106.967794,186.174392 102.842206,197.582967 L117.287046,192.684918 C117.900658,192.473648 118.567705,192.806737 118.775569,193.422892 C118.983434,194.038458 118.654021,194.705812 118.039235,194.914728 L99.3613523,201.248117 C98.5968327,201.507644 97.9926157,202.089666 97.7054804,202.845294 L97.106548,204.421874 C96.3954626,206.290936 94.9034164,207.729808 93.0138434,208.371268 L49.8842527,222.99656 C48.8161566,223.358485 48.1614413,224.436608 48.393968,225.449998 C48.5254982,226.026135 48.8819217,226.502228 49.3962989,226.790002 C49.9065658,227.076011 50.5119573,227.134272 51.0580427,226.947131 L94.3309075,212.272993 C96.2204804,211.63271 98.2779893,211.86752 99.9749644,212.91975 L101.405356,213.807201 C101.410053,213.809555 101.415338,213.811321 101.419448,213.814263 C102.104698,214.233861 102.930285,214.327431 103.690107,214.06967 L122.367989,207.735692 C122.981601,207.524423 123.649235,207.8581 123.856512,208.473666 C124.064377,209.089232 123.734964,209.756586 123.120178,209.965502 L104.442883,216.29948 C103.823399,216.509573 103.180427,216.588431 102.545676,216.553122 C105.132829,224.501343 111.102189,231.069542 118.856014,234.358055 C119.453185,234.611697 119.732687,235.302002 119.479609,235.900502 C119.290534,236.349524 118.855427,236.619644 118.39742,236.619644 C118.245338,236.619644 118.089733,236.589042 117.940587,236.526073 C109.017082,232.741458 102.280854,224.93683 99.8175979,215.590343 L98.7395196,214.9224 C97.6408897,214.241511 96.3085587,214.089091 95.0830961,214.502803 L67.9426512,223.706874 C71.4041281,237.023352 79.2037544,249.062794 90.014484,257.696024 C101.441174,266.822414 115.221904,271.646312 129.866388,271.646312 Z M94.3504609,179.355081 C97.0098381,180.950493 97.6486993,184.008904 95.8019911,187.102037 C93.9488238,190.204586 90.9582722,191.086152 88.2977206,189.490152 L80.4933968,184.809258 L82.0059947,182.276962 L89.5584146,186.807201 C91.106831,187.735847 92.6640552,187.429241 93.6352651,185.803227 C94.6017776,184.184865 94.1349626,182.664192 92.5877206,181.735546 L85.0341263,177.205307 L86.5467242,174.673599 L94.3504609,179.355081 Z M110.891975,161.316044 C111.76395,162.899097 111.697598,164.721668 110.587224,166.061084 L115.881317,169.527912 L112.962402,171.142743 L108.178577,167.895425 L106.112847,169.038872 L108.600178,173.554987 L106.02242,174.980912 L99.2245374,162.63604 L104.269075,159.845394 C107.102847,158.27823 109.549662,158.878496 110.891975,161.316044 Z M107.300142,165.936912 C108.598416,165.219535 108.947794,164.055491 108.274288,162.83142 C107.614875,161.633832 106.388238,161.308394 105.108167,162.016354 L102.913843,163.229243 L105.081157,167.164513 L107.300142,165.936912 Z M132.872676,160.067963 C134.782801,160.232742 136.173263,161.642777 136.156822,163.509485 C136.133922,165.992348 134.25668,167.52891 131.253797,167.500662 L125.023726,167.442401 L125.152907,153.341458 L131.27611,153.397954 C133.918459,153.423259 135.563762,154.796219 135.543797,156.955998 C135.529117,158.500211 134.367071,159.779012 132.873263,159.99087 L132.872676,160.067963 Z M130.522747,165.294392 C132.22031,165.310281 133.14337,164.595848 133.155114,163.247016 C133.168032,161.928197 132.227943,161.214941 130.492214,161.19964 L128.026021,161.177277 L127.988441,165.271441 L130.522747,165.294392 Z M128.077107,155.568326 L128.043637,159.232299 L130.159865,159.251719 C131.72942,159.265843 132.633103,158.580835 132.643673,157.388542 C132.654242,156.2551 131.870345,155.603047 130.495737,155.5901 L128.077107,155.568326 Z M153.199678,174.833552 L154.013521,171.34495 L149.762863,168.824424 L147.104073,171.218424 L144.504589,169.675977 L155.866689,160.042304 L158.84256,161.80838 L155.891351,176.430141 L153.199678,174.833552 Z M151.429304,167.247844 L154.590728,169.12338 L155.971795,163.237247 L155.913664,163.202526 L151.429304,167.247844 Z M171.61221,181.328601 L163.510769,185.717013 L162.171979,183.23415 L174.541694,176.532362 L175.710199,178.697438 L170.774879,188.853694 L170.811872,188.922548 L178.869861,184.5565 L180.209826,187.039951 L167.839523,193.742915 L166.681,191.59373 L171.6539,181.405694 L171.61221,181.328601 Z M94.0558683,225.09384 L97.3059573,230.001305 C98.9448007,232.475929 98.4310107,235.276579 95.9536619,236.927309 C93.4845338,238.572154 90.6642669,237.909508 88.9807972,235.367796 L87.4864021,233.110327 L83.6902278,235.639681 L82.0185018,233.115035 L94.0558683,225.09384 Z M94.2449431,234.366177 C95.6130925,233.454597 95.8268292,232.107531 94.8685374,230.661008 L93.734089,228.947309 L89.4546584,231.799159 L90.5844093,233.504031 C91.5415267,234.950553 92.868573,235.283641 94.2449431,234.366177 Z M106.938317,240.08447 L109.584189,241.554532 L103.791573,252.032108 L109.320541,255.102877 L108.105648,257.298554 L99.9308078,252.757134 L106.938317,240.08447 Z M127.546817,247.107459 L131.102244,247.165131 L135.8984,261.732751 L132.682956,261.681552 L131.63776,258.14999 L126.558578,258.0676 L125.400055,261.563264 L122.295002,261.513242 L127.546817,247.107459 Z M127.246763,255.808954 L131.022973,255.870158 L129.265518,249.906932 L129.195055,249.905755 L127.246763,255.808954 Z M154.313633,242.298273 L150.598491,244.231481 L156.108082,254.867362 L153.423456,256.263862 L147.914452,245.627981 L144.20753,247.557069 L143.058989,245.338441 L153.164505,240.080233 L154.313633,242.298273 Z M168.227302,236.29144 L171.214918,238.383542 L174.965292,233.004104 L177.016929,234.440621 L171.534936,242.304688 L159.692516,234.011608 L165.174509,226.14813 L167.217925,227.578763 L163.468139,232.958201 L166.323637,234.957909 L169.861448,229.882723 L171.765114,231.216254 L168.227302,236.29144 Z M120.674185,202.718473 C121.288384,202.509558 121.954843,202.840881 122.162708,203.456447 C122.370573,204.072013 122.04116,204.739956 121.426374,204.948283 L103.6281,210.984482 C103.503616,211.026854 103.376196,211.046863 103.251712,211.046863 C102.761996,211.046863 102.305164,210.737314 102.139577,210.246509 C101.931712,209.630942 102.261125,208.963 102.875324,208.754673 L120.674185,202.718473 Z M120.468904,198.439816 C120.676769,199.055383 120.347356,199.723325 119.732569,199.931653 L101.934295,205.967263 C101.809811,206.009635 101.682391,206.029644 101.557907,206.029644 C101.068192,206.029644 100.611359,205.720095 100.445185,205.22929 C100.237907,204.613723 100.566733,203.945781 101.18152,203.737454 L118.980381,197.701843 C119.59458,197.49175 120.261039,197.82425 120.468904,198.439816 Z M208.0529,229.18871 C208.359413,228.684958 208.435747,228.095285 208.268399,227.529153 C208.102224,226.968316 207.708808,226.503405 207.188559,226.253883 L140.723505,194.356834 C139.088185,193.572369 138.429947,193.643577 138.271993,193.678299 C137.77758,195.321967 144.581922,205.995511 163.399555,215.026564 C166.942651,216.726728 169.041263,216.278883 170.176886,215.60329 C170.964893,215.134259 171.860356,214.898861 172.77226,214.898861 C173.576121,214.898861 174.392313,215.081294 175.158594,215.449692 L205.276085,229.903732 C206.291922,230.390418 207.5121,230.077338 208.0529,229.18871 Z" transform="translate(-46 -141)"/>
</svg>
